<?xml version="1.0" encoding="UTF-8" standalone="no"?>
<!DOCTYPE svg PUBLIC "-//W3C//DTD SVG 1.1//EN" "http://www.w3.org/Graphics/SVG/1.1/DTD/svg11.dtd">
<svg width="100%" height="100%" viewBox="0 0 238 247" version="1.1" xmlns="http://www.w3.org/2000/svg" xmlns:xlink="http://www.w3.org/1999/xlink" xml:space="preserve" xmlns:serif="http://www.serif.com/" style="fill-rule:evenodd;clip-rule:evenodd;stroke-linejoin:round;stroke-miterlimit:2;">
    <g transform="matrix(0.24,0,0,0.24,0,0)">
        <g transform="matrix(4.16667,0,0,4.16667,59.8754,764.361)">
            <g id="Rund-Bild-Kopie" serif:id="Rund Bild Kopie">
                <path d="M0,-105.634C24.259,-142.278 46.731,-180.304 112.5,-170.441C193.559,-158.285 185.115,-147.618 210.227,-107.906C226.514,-82.148 222.24,-5.254 196.592,12.547C157.895,39.406 155.682,74.67 61.741,51.564C25.912,42.752 -35.608,-51.846 0,-105.634" style="fill:rgb(198,198,198);fill-rule:nonzero;"/>
            </g>
        </g>
        <g transform="matrix(4.16667,0,0,4.16667,41.8254,673.166)">
            <g id="Stern-Bild" serif:id="Stern Bild">
                <path d="M0,-58.464C12.403,-116.262 75.371,-154.128 101.864,-147.459C158.569,-133.185 181.651,-153.418 210.092,-80.941C220.199,-55.184 240.378,-28.381 200.154,29.162C153.67,95.664 81.99,80.017 58.257,63.555C7.34,28.232 -3.131,-43.873 0,-58.464" style="fill:rgb(29,29,27);fill-rule:nonzero;"/>
            </g>
        </g>
        <g id="gruae-Pfeile" serif:id="gruae Pfeile" transform="matrix(4.16667,0,0,4.16667,0,0)">
            <g transform="matrix(1,0,0,1,110.284,27.4452)">
                <path d="M0,28.66L-28.377,-21.563L-47.458,-10.781L-66.54,0L-38.164,50.223L-19.082,39.441L0,28.66Z" style="fill:rgb(198,198,198);fill-rule:nonzero;"/>
            </g>
            <g transform="matrix(1,0,0,1,52.395,77.9672)">
                <path d="M0,10.847L69.845,43.854L77.613,-33.007L0,10.847Z" style="fill:rgb(198,198,198);fill-rule:nonzero;"/>
            </g>
            <g transform="matrix(1,0,0,1,47.2319,160.771)">
                <path d="M0,-43.755L-43.546,-43.833L-43.585,-21.916L-43.625,-0.001L-0.079,0.078L-0.04,-21.838L0,-43.755Z" style="fill:rgb(198,198,198);fill-rule:nonzero;"/>
            </g>
            <g transform="matrix(1,0,0,1,47.1133,94.361)">
                <path d="M0,89.146L63.176,44.688L0.16,0L0,89.146Z" style="fill:rgb(198,198,198);fill-rule:nonzero;"/>
            </g>
            <g transform="matrix(1,0,0,1,197.652,6.2274)">
                <path d="M0,71.909L29.04,22.067L10.104,11.034L-8.833,0L-37.874,49.842L-18.938,60.875L0,71.909Z" style="fill:rgb(198,198,198);fill-rule:nonzero;"/>
            </g>
            <g transform="matrix(1,0,0,1,140.201,121.619)">
                <path d="M0,-76.957L6.746,0L77.025,-32.078L0,-76.957Z" style="fill:rgb(198,198,198);fill-rule:nonzero;"/>
            </g>
            <g transform="matrix(1,0,0,1,50.2767,210.99)">
                <path d="M0,-18.229L20.095,-7.772L7.256,16.907L42.422,35.393L47.048,35.393L58.977,12.462L79.079,22.925L68.671,-53.622L0,-18.229Z" style="fill:rgb(198,198,198);fill-rule:nonzero;"/>
            </g>
            <g transform="matrix(1,0,0,1,159.804,223.109)">
                <path d="M0,-1.027L13.335,21.981L32.298,10.991L51.261,-0.001L37.923,-23.008L18.961,-12.017L0,-1.027Z" style="fill:rgb(198,198,198);fill-rule:nonzero;"/>
            </g>
            <g transform="matrix(1,0,0,1,217.33,201.207)">
                <path d="M0,-12.469L-70.203,-44.705L-77.129,32.236L0,-12.469Z" style="fill:rgb(198,198,198);fill-rule:nonzero;"/>
            </g>
            <g transform="matrix(1,0,0,1,221.744,182.502)">
                <path d="M0,-89.142L-62.558,-43.82L1.067,0L0.795,-22.688L15.544,-23.056L15.544,-66.648L0.271,-66.518L0,-89.142Z" style="fill:rgb(198,198,198);fill-rule:nonzero;"/>
            </g>
            <g transform="matrix(1,0,0,1,210.962,62.1234)">
                <path d="M0,133.87C-38.697,160.729 -40.91,195.993 -134.851,172.888C-170.68,164.075 -232.2,69.477 -196.592,15.689C-172.333,-20.955 -149.861,-58.981 -84.092,-49.118C-3.033,-36.962 -11.477,-26.295 13.635,13.417C29.922,39.175 25.648,116.069 0,133.87M-210.962,184.26L26.326,184.26L26.326,-62.123L-210.962,-62.123L-210.962,184.26Z" style="fill:white;fill-rule:nonzero;"/>
            </g>
        </g>
        <g id="Pfeil-blau-Bild" serif:id="Pfeil blau Bild" transform="matrix(4.16667,0,0,4.16667,0,0)">
            <g transform="matrix(1,0,0,1,216.323,41.483)">
                <path d="M0,38.503L-7.552,-38.378L-77.49,-5.568L-57.799,5.631L-86.315,55.776L-47.674,76.881L-19.694,27.302L0,38.503Z" style="fill:rgb(16,80,158);fill-rule:nonzero;"/>
            </g>
            <g transform="matrix(1,0,0,1,26.7134,86.6313)">
                <path d="M0,88.991L65.635,48.249L5.3,0L3.953,22.616L-10.128,21.981L-12.613,65.54L1.347,66.372L0,88.991Z" style="fill:white;fill-rule:nonzero;"/>
            </g>
            <g transform="matrix(1,0,0,1,117.266,61.4051)">
                <path d="M0,-25.235L-70.203,-57.471L-77.129,19.47L-57.528,8.109L-43.543,32.236L-5.344,10.31L-19.604,-13.873L0,-25.235Z" style="fill:rgb(229,35,41);fill-rule:nonzero;"/>
            </g>
            <g transform="matrix(1,0,0,1,225.958,209.65)">
                <path d="M0,-8.004L-69.192,-42.352L-78.445,34.348L0,-8.004Z" style="fill:rgb(157,156,156);fill-rule:nonzero;"/>
            </g>
        </g>
        <g id="kanu-controll-groß" serif:id="kanu controll groß" transform="matrix(4.16667,0,0,4.16667,0,0)">
            <g transform="matrix(0.502535,0.864557,-0.864557,0.502535,0,0)">
                <g transform="matrix(32,0,0,32,43.373,-22.2994)">
                    <path d="M0.09,-0L0.09,-0.771L0.235,-0.771L0.235,-0.286L0.244,-0.286L0.435,-0.536L0.555,-0.536L0.379,-0.307L0.61,-0L0.435,-0L0.244,-0.268L0.235,-0.268L0.235,-0L0.09,-0Z" style="fill:white;fill-rule:nonzero;"/>
                </g>
                <g transform="matrix(32,0,0,32,60.4396,-22.2994)">
                    <path d="M0.353,-0.058C0.305,-0.011 0.253,0.012 0.198,0.012C0.151,0.012 0.113,-0.002 0.084,-0.031C0.055,-0.059 0.04,-0.097 0.04,-0.142C0.04,-0.201 0.064,-0.247 0.111,-0.279C0.158,-0.311 0.226,-0.327 0.314,-0.327L0.353,-0.327L0.353,-0.376C0.353,-0.432 0.321,-0.459 0.258,-0.459C0.201,-0.459 0.145,-0.444 0.087,-0.412L0.087,-0.511C0.152,-0.536 0.217,-0.548 0.281,-0.548C0.422,-0.548 0.492,-0.493 0.492,-0.381L0.492,-0.144C0.492,-0.102 0.505,-0.081 0.532,-0.081C0.537,-0.081 0.543,-0.081 0.551,-0.083L0.555,-0.001C0.524,0.008 0.497,0.012 0.474,0.012C0.414,0.012 0.376,-0.011 0.359,-0.058L0.353,-0.058ZM0.353,-0.135L0.353,-0.244L0.319,-0.244C0.225,-0.244 0.179,-0.215 0.179,-0.156C0.179,-0.136 0.185,-0.12 0.199,-0.106C0.212,-0.093 0.229,-0.086 0.249,-0.086C0.283,-0.086 0.318,-0.102 0.353,-0.135Z" style="fill:white;fill-rule:nonzero;"/>
                </g>
                <g transform="matrix(32,0,0,32,76.0687,-22.2994)">
                    <path d="M0.09,-0L0.09,-0.536L0.235,-0.536L0.235,-0.435C0.282,-0.511 0.343,-0.548 0.417,-0.548C0.465,-0.548 0.503,-0.533 0.531,-0.503C0.558,-0.473 0.572,-0.431 0.572,-0.379L0.572,-0L0.428,-0L0.428,-0.343C0.428,-0.404 0.408,-0.435 0.367,-0.435C0.321,-0.435 0.277,-0.402 0.235,-0.337L0.235,-0L0.09,-0Z" style="fill:white;fill-rule:nonzero;"/>
                </g>
                <g transform="matrix(32,0,0,32,93.9009,-22.2994)">
                    <path d="M0.422,-0L0.422,-0.101C0.375,-0.026 0.314,0.012 0.239,0.012C0.191,0.012 0.154,-0.003 0.126,-0.033C0.098,-0.063 0.084,-0.105 0.084,-0.157L0.084,-0.536L0.229,-0.536L0.229,-0.193C0.229,-0.132 0.249,-0.102 0.29,-0.102C0.336,-0.102 0.38,-0.134 0.422,-0.199L0.422,-0.536L0.566,-0.536L0.566,-0L0.422,-0Z" style="fill:white;fill-rule:nonzero;"/>
                </g>
            </g>
            <g transform="matrix(0.520344,-0.853957,0.853957,0.520344,0,0)">
                <g transform="matrix(32,0,0,32,-8.21766,199.089)">
                    <path d="M0.486,-0.012C0.426,0.004 0.37,0.012 0.319,0.012C0.234,0.012 0.166,-0.013 0.116,-0.063C0.067,-0.114 0.042,-0.182 0.042,-0.269C0.042,-0.356 0.068,-0.425 0.119,-0.474C0.17,-0.524 0.24,-0.548 0.331,-0.548C0.374,-0.548 0.424,-0.541 0.481,-0.527L0.481,-0.423C0.422,-0.442 0.375,-0.452 0.339,-0.452C0.296,-0.452 0.261,-0.435 0.235,-0.402C0.208,-0.369 0.195,-0.325 0.195,-0.27C0.195,-0.213 0.21,-0.168 0.238,-0.134C0.267,-0.1 0.305,-0.083 0.352,-0.083C0.395,-0.083 0.44,-0.093 0.486,-0.112L0.486,-0.012Z" style="fill:white;fill-rule:nonzero;"/>
                </g>
                <g transform="matrix(32,0,0,32,5.49533,199.089)">
                    <path d="M0.315,0.012C0.232,0.012 0.165,-0.013 0.116,-0.064C0.067,-0.114 0.042,-0.182 0.042,-0.268C0.042,-0.355 0.067,-0.423 0.116,-0.473C0.166,-0.523 0.234,-0.548 0.319,-0.548C0.404,-0.548 0.472,-0.523 0.522,-0.473C0.571,-0.423 0.596,-0.355 0.596,-0.269C0.596,-0.181 0.571,-0.112 0.521,-0.063C0.472,-0.013 0.403,0.012 0.315,0.012ZM0.318,-0.078C0.401,-0.078 0.442,-0.142 0.442,-0.269C0.442,-0.327 0.431,-0.373 0.409,-0.407C0.387,-0.441 0.357,-0.458 0.319,-0.458C0.281,-0.458 0.251,-0.441 0.229,-0.407C0.207,-0.373 0.196,-0.327 0.196,-0.268C0.196,-0.21 0.207,-0.164 0.229,-0.129C0.25,-0.095 0.28,-0.078 0.318,-0.078Z" style="fill:white;fill-rule:nonzero;"/>
                </g>
                <g transform="matrix(32,0,0,32,22.6146,199.089)">
                    <path d="M0.09,-0L0.09,-0.536L0.235,-0.536L0.235,-0.435C0.282,-0.511 0.343,-0.548 0.417,-0.548C0.465,-0.548 0.503,-0.533 0.531,-0.503C0.558,-0.473 0.572,-0.431 0.572,-0.379L0.572,-0L0.428,-0L0.428,-0.343C0.428,-0.404 0.408,-0.435 0.367,-0.435C0.321,-0.435 0.277,-0.402 0.235,-0.337L0.235,-0L0.09,-0Z" style="fill:white;fill-rule:nonzero;"/>
                </g>
                <g transform="matrix(32,0,0,32,40.3119,199.089)">
                    <path d="M0.367,-0.003C0.332,0.007 0.305,0.012 0.285,0.012C0.16,0.012 0.097,-0.046 0.097,-0.164L0.097,-0.446L0.037,-0.446L0.037,-0.536L0.097,-0.536L0.097,-0.626L0.242,-0.643L0.242,-0.536L0.356,-0.536L0.356,-0.446L0.242,-0.446L0.242,-0.183C0.242,-0.117 0.269,-0.084 0.322,-0.084C0.335,-0.084 0.349,-0.086 0.367,-0.091L0.367,-0.003Z" style="fill:white;fill-rule:nonzero;"/>
                </g>
                <g transform="matrix(32,0,0,32,49.9624,199.089)">
                    <path d="M0.09,-0L0.09,-0.536L0.235,-0.536L0.235,-0.435C0.272,-0.511 0.329,-0.548 0.406,-0.548C0.415,-0.548 0.424,-0.547 0.433,-0.545L0.433,-0.417C0.412,-0.424 0.393,-0.428 0.375,-0.428C0.318,-0.428 0.271,-0.399 0.235,-0.34L0.235,-0L0.09,-0Z" style="fill:white;fill-rule:nonzero;"/>
                </g>
                <g transform="matrix(32,0,0,32,61.191,199.089)">
                    <path d="M0.315,0.012C0.232,0.012 0.165,-0.013 0.116,-0.064C0.067,-0.114 0.042,-0.182 0.042,-0.268C0.042,-0.355 0.067,-0.423 0.116,-0.473C0.166,-0.523 0.234,-0.548 0.319,-0.548C0.404,-0.548 0.472,-0.523 0.522,-0.473C0.571,-0.423 0.596,-0.355 0.596,-0.269C0.596,-0.181 0.571,-0.112 0.521,-0.063C0.472,-0.013 0.403,0.012 0.315,0.012ZM0.318,-0.078C0.401,-0.078 0.442,-0.142 0.442,-0.269C0.442,-0.327 0.431,-0.373 0.409,-0.407C0.387,-0.441 0.357,-0.458 0.319,-0.458C0.281,-0.458 0.251,-0.441 0.229,-0.407C0.207,-0.373 0.196,-0.327 0.196,-0.268C0.196,-0.21 0.207,-0.164 0.229,-0.129C0.25,-0.095 0.28,-0.078 0.318,-0.078Z" style="fill:white;fill-rule:nonzero;"/>
                </g>
                <g transform="matrix(32,0,0,32,78.3103,199.089)">
                    <rect x="0.09" y="-0.771" width="0.145" height="0.771" style="fill:white;fill-rule:nonzero;"/>
                </g>
            </g>
        </g>
    </g>
</svg>
